<?xml version="1.0" encoding="UTF-8" standalone="no"?>
<svg width="114px" height="114px" viewBox="0 0 114 114" version="1.1" xmlns="http://www.w3.org/2000/svg" xmlns:xlink="http://www.w3.org/1999/xlink" xmlns:sketch="http://www.bohemiancoding.com/sketch/ns">
    <title>Untitled</title>
    <description>Created with Sketch (http://www.bohemiancoding.com/sketch)</description>
    <defs>
        <circle id="path-1" cx="57" cy="57" r="57"></circle>
        <linearGradient x1="100%" y1="50%" x2="35.9413281%" y2="50%" id="linearGradient-3" stop-color="#111111">
            <stop offset="0%"></stop>
            <stop offset="100%"></stop>
        </linearGradient>
        <filter x="-50%" y="-50%" width="200%" height="200%" filterUnits="objectBoundingBox" id="filter-4">
            <feOffset dx="4" dy="4" in="SourceAlpha" result="shadowOffsetOuter1"></feOffset>
            <feGaussianBlur stdDeviation="2" in="shadowOffsetOuter1" result="shadowBlurOuter1"></feGaussianBlur>
            <feColorMatrix values="0 0 0 0 0   0 0 0 0 0   0 0 0 0 0  0 0 0 0.7 0" in="shadowBlurOuter1" type="matrix" result="shadowMatrixOuter1"></feColorMatrix>
            <feMerge>
                <feMergeNode in="shadowMatrixOuter1"></feMergeNode>
                <feMergeNode in="SourceGraphic"></feMergeNode>
            </feMerge>
        </filter>
    </defs>
    <g id="Page-1" stroke="none" stroke-width="1" fill="none" fill-rule="evenodd" sketch:type="MSPage">
        <mask id="mask-2" sketch:name="Oval 1" fill="white">
            <use xlink:href="#path-1"></use>
        </mask>
        <use id="Oval-1" fill="#424242" sketch:type="MSShapeGroup" xlink:href="#path-1"></use>
        <path d="M45.6331677,43.8261864 C45.1491985,44.8753684 39.6311618,49.3175696 37.6756765,53.8913292 C35.279739,59.4952784 32.8139929,65.2967249 32.8139929,65.2967249 C32.8139929,65.2967249 35.508131,70.3712791 39.0434765,76.8785393 C41.0790589,80.6252922 43.3935215,84.8470201 45.6331678,88.8485508 C48.7131607,94.3515122 54.846758,99.4654297 56.743196,102.299682 C77.6702218,102.299682 76.0435985,102.299682 96.9706244,102.299682 C106.709409,87.5382415 106.516569,73.062934 106.516569,73.062934 C106.516569,73.062934 107.577222,57.743333 99.8311896,43.8261864 L45.6331677,43.8261864 Z" id="Rectangle-1" fill="url(#linearGradient-3)" sketch:type="MSShapeGroup" transform="translate(69.813993, 72.826186) rotate(-315.000000) translate(-69.813993, -72.826186) "></path>
        <path d="M41.34375,31 C39.78125,31.0771429 39,31.8485714 39,33.3914286 L39,82.6857143 C39,84.1514286 39.859375,85 41.34375,85 L50.09375,85 C51.65625,85 52.4375,84.2285714 52.4375,82.6857143 L52.4375,70.3428571 C52.4375,68.8 53.296875,68.0285714 54.78125,68.0285714 L58.53125,68.0285714 C72.4375,68.0285714 78.0625,62.1657143 78.0625,49.5142857 C78.0625,36.8628571 72.4375,31 58.53125,31 L41.34375,31 Z M54.78125,54.76 C53.296875,54.76 52.4375,53.9114286 52.4375,52.4457143 L52.4375,46.5828571 C52.4375,45.04 53.296875,44.2685714 54.78125,44.2685714 L59,44.2685714 C62.75,44.2685714 64.625,44.7314286 64.625,49.5142857 C64.625,54.2971429 62.75,54.76 59,54.76 L54.78125,54.76 Z" id="P" fill="#B44646" filter="url(#filter-4)" sketch:type="MSShapeGroup"></path>
    </g>
</svg>